<svg xmlns="http://www.w3.org/2000/svg" width="143.299" height="75.854" viewBox="0 0 143.299 75.854">
  <path id="path0" d="M20.779.16a1.523,1.523,0,0,1-.556.412,6.672,6.672,0,0,0-1.054.734,2.416,2.416,0,0,1-.714.482c-.225,0-.514.359-.982,1.218l-.415.762-.069,11-.069,11-.319.359a8.159,8.159,0,0,1-1.627,1.45,2.421,2.421,0,0,0-.567.447,1.793,1.793,0,0,1-.641.446c-.421,0-3.934,3.875-3.934,4.339a.5.5,0,0,1-.183.251,19.08,19.08,0,0,0-1.686,3.45c-.043.213-.128.388-.189.388s-.112.333-.112.74a1.952,1.952,0,0,1-.141.882,3.905,3.905,0,0,0-.2,1.27c-.074,1.389-1.053,3.109-1.769,3.109A23.547,23.547,0,0,0,2.6,45.988a15.564,15.564,0,0,0-1.383,2.6,1.769,1.769,0,0,1-.4.614,1.407,1.407,0,0,0-.359.542c-.1.242-.244.44-.318.44A9.7,9.7,0,0,0,0,52.8a10.458,10.458,0,0,0,.13,2.617c.072,0,.2.159.283.352a3.743,3.743,0,0,0,.444.712,1.309,1.309,0,0,1,.292.542c0,.1.057.182.128.182s.127.146.127.326a3.368,3.368,0,0,0,.844,1.627.432.432,0,0,1,.178.343.418.418,0,0,0,.13.323,6.063,6.063,0,0,1,.664.8A6.249,6.249,0,0,0,4.957,62.37a4.8,4.8,0,0,1,.78.635,1.013,1.013,0,0,0,.534.335.808.808,0,0,1,.475.319.817.817,0,0,0,.424.321,2.66,2.66,0,0,1,.729.32,2.441,2.441,0,0,0,.783.317,1.678,1.678,0,0,1,.594.191A1.676,1.676,0,0,0,9.857,65a.382.382,0,0,1,.295.129,14.546,14.546,0,0,0,2.867.128c2.361,0,2.8.029,2.862.192a.3.3,0,0,0,.251.192c.626,0,.822.816.891,3.7l.065,2.745.468.864a2.925,2.925,0,0,0,1.129,1.288,5.057,5.057,0,0,1,.838.64,4.678,4.678,0,0,0,.741.6l.562.38H76.333l.559-.511a2.449,2.449,0,0,1,.706-.51,4.487,4.487,0,0,0,.958-.818c1.027-1.034,1.129-1.165,1.134-1.444a1,1,0,0,1,.192-.477c.288-.38.283-43.078,0-43.188a.42.42,0,0,1-.192-.379c0-.238-.068-.306-.309-.306-.169,0-.333-.071-.362-.159-.042-.126-3.371-.168-15.938-.2l-15.884-.039-.4-.3c-.851-.65-.8.136-.816-13.605-.006-7.969-.055-12.462-.135-12.489s-.124-.2-.124-.389a1.962,1.962,0,0,0-.16-.691L45.4,0,33.12,0c-9.7,0-12.291.033-12.341.159M51.254,1.978c-.736.375-.684-.444-.684,10.808,0,5.891.048,10.328.113,10.328s.144.119.182.264a.516.516,0,0,0,.334.334c.146.038.265.149.265.246,0,.25,25.5.267,25.828.018q1.056-.808-3.156-3.863a10.461,10.461,0,0,1-.9-.746,7.149,7.149,0,0,0-.824-.66,9.639,9.639,0,0,1-.958-.769c-.281-.259-.712-.621-.958-.805s-.677-.552-.956-.818a2.33,2.33,0,0,0-.639-.483,2.991,2.991,0,0,1-.724-.561,12.19,12.19,0,0,0-1.177-.959,3.539,3.539,0,0,1-.681-.565,5.827,5.827,0,0,0-.866-.732c-.421-.311-.993-.781-1.271-1.044a2.132,2.132,0,0,0-.649-.479,1.076,1.076,0,0,1-.453-.331,8.525,8.525,0,0,0-.949-.8c-.351-.255-.868-.675-1.149-.932-.529-.486-1.162-1-2.362-1.932-.386-.3-.93-.759-1.208-1.022A2.284,2.284,0,0,0,56.768,6a5.68,5.68,0,0,1-1.027-.829,6.75,6.75,0,0,0-1-.828,1.481,1.481,0,0,1-.463-.352,6.1,6.1,0,0,0-1.094-.926,10.691,10.691,0,0,1-1.617-1.129c-.022-.054-.164-.034-.314.042M143.3,52.612,27.258,26.961a.721.721,0,0,0,.411.112,6.019,6.019,0,0,1,2.407.9.336.336,0,0,0,.263.125,2.152,2.152,0,0,1,.693.319,2.584,2.584,0,0,0,.618.32c.557,0,3.273,2.272,4.381,3.663,1.009,1.268,3.074,2.122,3.492,1.445a.733.733,0,0,1,.487-.133,1.772,1.772,0,0,0,.727-.187,13.619,13.619,0,0,1,4.6,0,1.612,1.612,0,0,0,.638.189,4.111,4.111,0,0,1,1.492.485,1.24,1.24,0,0,0,.395.156,13.144,13.144,0,0,1,2.306,1.411.2.2,0,0,0,.173.121,4.93,4.93,0,0,1,1.652,1.46c.274.356.546.709.607.784a15.58,15.58,0,0,1,1.489,2.61c.188.456.4.948.464,1.092A5.306,5.306,0,0,0,56.2,43.553c.274.139.5.31.5.379s.08.125.177.125a16.118,16.118,0,0,1,2.76,2.752.229.229,0,0,0,.109.206,4.5,4.5,0,0,1,.785,1.427.529.529,0,0,0,.149.31,3.168,3.168,0,0,1,.487,1.378,1.015,1.015,0,0,0,.189.511,1.721,1.721,0,0,1,.192.829,1.443,1.443,0,0,0,.144.721,7.785,7.785,0,0,1-.325,3.167,5.679,5.679,0,0,0-.454,1.494.549.549,0,0,1-.192.358.529.529,0,0,0-.192.329c0,.854-3.641,4.651-4.46,4.651a.185.185,0,0,0-.159.111,6.156,6.156,0,0,1-1.86.84,1.03,1.03,0,0,0-.487.208.94.94,0,0,1-.561.118.968.968,0,0,0-.647.192c-.139.169-2.4.192-18.948.192-18.42,0-18.793.005-18.944.247-.113.182-.116.259-.008.295.559.186-.082.474-1.042.467-1.053-.007-1.214-.07-1.079-.422a.527.527,0,0,1,.751-.077c.129.209.576-.159.576-.475,0-.257-.063-.289-.575-.289-.316,0-.575.057-.575.128,0,.228-1.748.159-1.837-.074a.327.327,0,0,0-.365-.163.817.817,0,0,1-.453-.066.335.335,0,0,0-.365.063c-.166.139-.226.129-.359-.053a.6.6,0,0,0-.433-.218c-.151,0-.274-.057-.274-.128,0-.2-.446-.6-.606-.542-.079.026-.241-.1-.359-.28a.694.694,0,0,0-.454-.327,13.349,13.349,0,0,1-2.924-2.853,1.77,1.77,0,0,0-.389-.85,6.143,6.143,0,0,1-.76-1.63,1.219,1.219,0,0,0-.221-.545,3.318,3.318,0,0,1-.27-1.624,3.973,3.973,0,0,0-.162-1.309c-.062,0-.113-.086-.113-.192s-.057-.192-.127-.192c-.281,0-.127-.51.159-.528l.287-.018L2.2,52.14c-.365-.07-.4-.549-.041-.549.218,0,.256-.131.335-1.142.061-.785.144-1.162.265-1.209a.3.3,0,0,0,.175-.264,1.079,1.079,0,0,1,.16-.455c.13-.21.126-.278-.019-.369a.267.267,0,0,1-.087-.347c.089-.228.1-.228.263,0s.173.225.217,0a.681.681,0,0,0-.244-.5.913.913,0,0,1-.29-.415c0-.245.275-.161.592.181.264.286.3.3.3.087a.987.987,0,0,1,.32-.54,1.177,1.177,0,0,0,.319-.4,2.116,2.116,0,0,1,.451-.536c.415-.4.43-.443.192-.5-.143-.038-.259-.133-.259-.211,0-.221.391-.32.641-.164.187.116.358.015,1.037-.614a3.84,3.84,0,0,1,1.011-.759.549.549,0,0,0,.5-.5.832.832,0,0,1,.218-.428c.178-.2.19-.286.064-.487-.224-.357-.189-.544.086-.472s.47-.791.323-1.375a.537.537,0,0,1,.161-.53c.177-.178.224-.386.195-.855a1.1,1.1,0,0,1,.175-.857.578.578,0,0,0,.134-.556c-.061-.242-.016-.353.185-.46s.248-.217.181-.525-.039-.395.175-.451c.169-.044.232-.136.182-.265a.342.342,0,0,1,.152-.365.341.341,0,0,0,.153-.362.273.273,0,0,1,.171-.327c.136-.073.216-.211.179-.307s.1-.294.329-.457c.269-.192.373-.353.325-.5s.058-.321.32-.522c.215-.164.364-.366.333-.449-.065-.169.275-.558,1.05-1.2a2.118,2.118,0,0,0,.529-.545,2.34,2.34,0,0,1,1.022-.868,1.038,1.038,0,0,0,.492-.323.985.985,0,0,1,.529-.317.342.342,0,0,0,.3-.192.369.369,0,0,1,.333-.192c.286,0,.356-.362.117-.6a.248.248,0,0,1-.052-.287c.06-.1.195-.04.408.174s.383.289.532.216c.116-.057.393-.2.614-.313a1.963,1.963,0,0,1,.735-.209c.182,0,.331-.051.331-.114s.187-.141.415-.175a7.2,7.2,0,0,0,1.565-.495,28.055,28.055,0,0,1,6.251.034M28.023,43.1a1.043,1.043,0,0,1-.512.192c-.492.008-1.46,1.355-1.46,2.033a6.813,6.813,0,0,0,1.037,2.242c.417.677.435,1.025.122,2.4-.076.334-.185.851-.242,1.149a3.571,3.571,0,0,1-.255.822c-.632,1.165.1,1.978,1.744,1.928l1.206-.036.392-.483c.367-.454.381-.509.224-.894a4.754,4.754,0,0,1-.227-.729,3.935,3.935,0,0,0-.162-.575c-.679-1.714-.6-3.371.188-4.026a2.4,2.4,0,0,0,.448-2.607c-.794-1.285-1.871-1.895-2.5-1.417M4.573,45.3c-.051.269-.278.252-.336-.025a.157.157,0,0,1,.169-.2c.132,0,.194.084.167.224m5.715,18.816c.112.182-.261.555-.443.442-.243-.15-.163-.582.108-.582a.432.432,0,0,1,.335.14" transform="translate(0 -0.001)" fill="#6038ef" fill-rule="evenodd"/>
</svg>
